<svg width="85" height="40" viewBox="0 0 85 40" fill="none" xmlns="http://www.w3.org/2000/svg">
<path fill-rule="evenodd" clip-rule="evenodd" d="M20.5234 0C31.5691 0 40.5234 8.9543 40.5234 20C40.5234 31.0457 31.5691 40 20.5234 40C9.47774 40 0.523438 31.0457 0.523438 20C0.523438 8.9543 9.47774 0 20.5234 0ZM19.8005 1.49659C17.5189 1.81769 15.3463 3.65108 13.6598 6.7174C13.1706 7.60683 12.7292 8.58946 12.3445 9.65044C14.6377 9.07417 17.1568 8.73442 19.8005 8.68187V1.49659ZM10.6542 10.1308C11.1325 8.62958 11.7177 7.2484 12.393 6.02065C13.229 4.50059 14.2212 3.18795 15.3391 2.17977C9.26023 3.94523 4.46866 8.73679 2.70321 14.8157C3.71138 13.6978 5.02403 12.7056 6.54409 11.8696C7.77184 11.1943 9.15301 10.6091 10.6542 10.1308ZM10.1738 11.8211C9.5976 14.1143 9.25786 16.6334 9.20531 19.2771H2.02002C2.34113 16.9954 4.17452 14.8228 7.24084 13.1364C8.13027 12.6472 9.1129 12.2058 10.1738 11.8211ZM10.6514 19.2771C10.7111 16.392 11.1264 13.6834 11.8136 11.2902C14.2068 10.603 16.9155 10.1876 19.8005 10.1279V13.2508C18.7242 16.0062 16.529 18.2012 13.7735 19.2771H10.6514ZM9.20531 20.7229H2.02002C2.34113 23.0046 4.17452 25.1771 7.24084 26.8636C8.13027 27.3528 9.1129 27.7942 10.1738 28.1789C9.5976 25.8857 9.25786 23.3666 9.20531 20.7229ZM11.8136 28.7098C11.1264 26.3166 10.7111 23.608 10.6514 20.7229H13.7735C16.529 21.7988 18.7243 23.9938 19.8005 26.7492V29.8721C16.9155 29.8124 14.2068 29.397 11.8136 28.7098ZM10.6542 29.8692C9.15301 29.3909 7.77184 28.8057 6.54409 28.1304C5.02403 27.2944 3.71138 26.3022 2.70321 25.1843C4.46866 31.2632 9.26023 36.0548 15.3391 37.8202C14.2212 36.812 13.229 35.4994 12.393 33.9793C11.7177 32.7516 11.1325 31.3704 10.6542 29.8692ZM19.8005 38.5034C17.5189 38.1823 15.3463 36.3489 13.6598 33.2826C13.1706 32.3932 12.7292 31.4105 12.3445 30.3496C14.6377 30.9258 17.1568 31.2656 19.8005 31.3181V38.5034ZM25.7077 37.8202C26.8256 36.812 27.8178 35.4994 28.6539 33.9793C29.3291 32.7516 29.9143 31.3704 30.3926 29.8692C31.8938 29.3909 33.275 28.8057 34.5028 28.1304C36.0228 27.2944 37.3355 26.3022 38.3436 25.1843C36.5782 31.2632 31.7866 36.0548 25.7077 37.8202ZM28.7023 30.3496C28.3176 31.4105 27.8762 32.3932 27.387 33.2826C25.7006 36.3489 23.528 38.1823 21.2463 38.5034V31.3181C23.89 31.2656 26.4091 30.9258 28.7023 30.3496ZM30.873 28.1789C31.9339 27.7942 32.9166 27.3528 33.806 26.8636C36.8723 25.1771 38.7057 23.0046 39.0268 20.7229H31.8415C31.789 23.3666 31.4492 25.8857 30.873 28.1789ZM30.3955 20.7229C30.3358 23.608 29.9204 26.3166 29.2332 28.7098C26.84 29.397 24.1314 29.8124 21.2463 29.8721V26.7515C22.3222 23.9951 24.5179 21.7991 27.2742 20.7229H30.3955ZM31.8415 19.2771H39.0268C38.7057 16.9954 36.8723 14.8228 33.806 13.1364C32.9166 12.6472 31.9339 12.2058 30.873 11.8211C31.4492 14.1143 31.789 16.6334 31.8415 19.2771ZM29.2332 11.2902C29.9204 13.6834 30.3358 16.392 30.3955 19.2771H27.2742C24.5179 18.2009 22.3222 16.0049 21.2463 13.2485V10.1279C24.1314 10.1876 26.84 10.603 29.2332 11.2902ZM30.3926 10.1308C31.8938 10.6091 33.275 11.1943 34.5028 11.8696C36.0228 12.7056 37.3355 13.6978 38.3436 14.8157C36.5782 8.73679 31.7866 3.94523 25.7077 2.17977C26.8256 3.18795 27.8178 4.50059 28.6539 6.02065C29.3291 7.2484 29.9143 8.62958 30.3926 10.1308ZM21.2463 1.49659C23.528 1.81769 25.7006 3.65108 27.387 6.7174C27.8762 7.60684 28.3176 8.58946 28.7023 9.65044C26.4091 9.07417 23.89 8.73442 21.2463 8.68187V1.49659Z" fill="url(#paint0_linear_785_65)"/>
<path d="M47.932 19.234C47.296 19.234 46.72 19.168 46.204 19.036C45.7 18.916 45.268 18.742 44.908 18.514C44.548 18.274 44.26 17.992 44.044 17.668C43.828 17.332 43.696 16.96 43.648 16.552L45.43 15.886C45.454 16.198 45.574 16.48 45.79 16.732C46.006 16.972 46.306 17.164 46.69 17.308C47.074 17.452 47.536 17.524 48.076 17.524C48.676 17.524 49.138 17.434 49.462 17.254C49.798 17.062 49.966 16.792 49.966 16.444C49.966 16.192 49.876 15.994 49.696 15.85C49.516 15.694 49.252 15.568 48.904 15.472C48.568 15.364 48.16 15.262 47.68 15.166C47.236 15.07 46.786 14.962 46.33 14.842C45.886 14.71 45.472 14.542 45.088 14.338C44.716 14.122 44.41 13.846 44.17 13.51C43.942 13.162 43.828 12.724 43.828 12.196C43.828 11.62 43.978 11.122 44.278 10.702C44.59 10.282 45.034 9.952 45.61 9.712C46.198 9.472 46.906 9.352 47.734 9.352C48.514 9.352 49.186 9.46 49.75 9.676C50.326 9.892 50.794 10.204 51.154 10.612C51.514 11.008 51.742 11.482 51.838 12.034L49.966 12.628C49.93 12.292 49.816 12.01 49.624 11.782C49.432 11.542 49.174 11.362 48.85 11.242C48.526 11.122 48.148 11.062 47.716 11.062C47.164 11.062 46.732 11.158 46.42 11.35C46.108 11.542 45.952 11.8 45.952 12.124C45.952 12.388 46.048 12.598 46.24 12.754C46.444 12.91 46.72 13.036 47.068 13.132C47.428 13.228 47.836 13.324 48.292 13.42C48.772 13.516 49.234 13.63 49.678 13.762C50.134 13.882 50.542 14.044 50.902 14.248C51.262 14.452 51.55 14.722 51.766 15.058C51.982 15.382 52.09 15.802 52.09 16.318C52.09 16.942 51.922 17.476 51.586 17.92C51.25 18.352 50.77 18.682 50.146 18.91C49.534 19.126 48.796 19.234 47.932 19.234ZM57.3994 19.234C56.6434 19.234 55.9654 19.126 55.3654 18.91C54.7774 18.694 54.2794 18.382 53.8714 17.974C53.4634 17.554 53.1514 17.05 52.9354 16.462C52.7194 15.874 52.6114 15.208 52.6114 14.464C52.6114 13.72 52.7134 13.036 52.9174 12.412C53.1334 11.788 53.4394 11.248 53.8354 10.792C54.2314 10.336 54.7114 9.982 55.2754 9.73C55.8514 9.478 56.5054 9.352 57.2374 9.352C57.9214 9.352 58.5334 9.466 59.0734 9.694C59.6134 9.922 60.0694 10.264 60.4414 10.72C60.8134 11.164 61.0894 11.722 61.2694 12.394C61.4494 13.054 61.5094 13.822 61.4494 14.698L54.0874 14.752V13.438L60.1354 13.384L59.3434 14.122C59.4154 13.438 59.3614 12.88 59.1814 12.448C59.0014 12.004 58.7434 11.68 58.4074 11.476C58.0714 11.26 57.6874 11.152 57.2554 11.152C56.7634 11.152 56.3314 11.284 55.9594 11.548C55.5874 11.8 55.2994 12.172 55.0954 12.664C54.9034 13.144 54.8074 13.732 54.8074 14.428C54.8074 15.472 55.0354 16.252 55.4914 16.768C55.9594 17.284 56.5954 17.542 57.3994 17.542C57.7594 17.542 58.0594 17.5 58.2994 17.416C58.5514 17.32 58.7614 17.2 58.9294 17.056C59.0974 16.9 59.2294 16.726 59.3254 16.534C59.4334 16.342 59.5174 16.138 59.5774 15.922L61.5574 16.372C61.4614 16.816 61.3054 17.212 61.0894 17.56C60.8734 17.908 60.5914 18.208 60.2434 18.46C59.9074 18.712 59.5054 18.904 59.0374 19.036C58.5694 19.168 58.0234 19.234 57.3994 19.234ZM66.9408 19.234C66.1848 19.234 65.5068 19.126 64.9068 18.91C64.3188 18.694 63.8208 18.382 63.4128 17.974C63.0048 17.554 62.6928 17.05 62.4768 16.462C62.2608 15.874 62.1528 15.208 62.1528 14.464C62.1528 13.72 62.2548 13.036 62.4588 12.412C62.6748 11.788 62.9808 11.248 63.3768 10.792C63.7728 10.336 64.2528 9.982 64.8168 9.73C65.3928 9.478 66.0468 9.352 66.7788 9.352C67.4628 9.352 68.0748 9.466 68.6148 9.694C69.1548 9.922 69.6108 10.264 69.9828 10.72C70.3548 11.164 70.6308 11.722 70.8108 12.394C70.9908 13.054 71.0508 13.822 70.9908 14.698L63.6288 14.752V13.438L69.6768 13.384L68.8848 14.122C68.9568 13.438 68.9028 12.88 68.7228 12.448C68.5428 12.004 68.2848 11.68 67.9488 11.476C67.6128 11.26 67.2288 11.152 66.7968 11.152C66.3048 11.152 65.8728 11.284 65.5008 11.548C65.1288 11.8 64.8408 12.172 64.6368 12.664C64.4448 13.144 64.3488 13.732 64.3488 14.428C64.3488 15.472 64.5768 16.252 65.0328 16.768C65.5008 17.284 66.1368 17.542 66.9408 17.542C67.3008 17.542 67.6008 17.5 67.8408 17.416C68.0928 17.32 68.3028 17.2 68.4708 17.056C68.6388 16.9 68.7708 16.726 68.8668 16.534C68.9748 16.342 69.0588 16.138 69.1188 15.922L71.0988 16.372C71.0028 16.816 70.8468 17.212 70.6308 17.56C70.4148 17.908 70.1328 18.208 69.7848 18.46C69.4488 18.712 69.0468 18.904 68.5788 19.036C68.1108 19.168 67.5648 19.234 66.9408 19.234ZM72.1639 19V14.284V9.586H74.0719L74.0359 12.826H74.3599C74.4679 12.058 74.6359 11.422 74.8639 10.918C75.0919 10.402 75.4099 10.018 75.8179 9.766C76.2259 9.502 76.7299 9.37 77.3299 9.37C77.4499 9.37 77.5759 9.376 77.7079 9.388C77.8519 9.4 78.0079 9.43 78.1759 9.478L78.0859 11.872C77.8939 11.8 77.6959 11.752 77.4919 11.728C77.2999 11.692 77.1199 11.674 76.9519 11.674C76.4839 11.674 76.0759 11.794 75.7279 12.034C75.3919 12.274 75.1159 12.616 74.8999 13.06C74.6959 13.492 74.5399 14.008 74.4319 14.608V19H72.1639ZM78.8267 15.238V13.186H83.9207V15.238H78.8267ZM46.528 33.18C44.674 33.18 43.504 32.316 43.504 30.84C43.504 29.454 44.62 28.734 46.384 28.536L50.452 28.104V27.582C50.452 26.106 49.804 25.584 48.094 25.584C46.438 25.584 45.628 26.124 45.628 27.438V27.51H43.702V27.438C43.702 25.404 45.394 23.874 48.238 23.874C51.082 23.874 52.36 25.422 52.36 27.564V33H50.578V30.768H50.452C49.984 32.28 48.562 33.18 46.528 33.18ZM45.448 30.714C45.448 31.434 45.934 31.776 47.05 31.776C49.084 31.776 50.452 31.02 50.452 29.256L46.942 29.652C45.934 29.778 45.448 30.012 45.448 30.714ZM55.1393 23.01H53.1953V20.94H55.1393V23.01ZM55.1393 33H53.1953V24.054H55.1393V33Z" fill="url(#paint1_linear_785_65)"/>
<defs>
<linearGradient id="paint0_linear_785_65" x1="20.5234" y1="0" x2="20.5234" y2="40" gradientUnits="userSpaceOnUse">
<stop stop-color="#666666"/>
<stop offset="1" stop-color="white"/>
</linearGradient>
<linearGradient id="paint1_linear_785_65" x1="64" y1="6" x2="64" y2="35" gradientUnits="userSpaceOnUse">
<stop stop-color="#666666"/>
<stop offset="1" stop-color="white"/>
</linearGradient>
</defs>
</svg>
